# xmcd
#
# Track frame offsets: 
#        183
#        25420
#        42450
#        91205
#        112445
#        131753
#        149745
#        167168
#
# Disc length: 2435 seconds
#
# Revision: 1
# Processed by: cddbd v1.5.2PL0 Copyright (c) Steve Scherf et al.
# Submitted via: ExactAudioCopy v0.99pb5
#
DISCID=7c098108
DTITLE=After Blues and Friends - After Blues and Friends
DYEAR=1995
DGENRE=Blues
TTITLE0=Independent
TTITLE1=Women often Lie
TTITLE2=Blues for Richard
TTITLE3=Dedication
TTITLE4=I believe you won't go
TTITLE5=I Feel the Blues From the Morning
TTITLE6=Look at me, Mum
TTITLE7=Head Up
EXTD=Polmos Records 1995
EXTT0=
EXTT1=
EXTT2=
EXTT3=
EXTT4=
EXTT5=
EXTT6=
EXTT7=
PLAYORDER=
